
 
http://img521.imageshack.us/img521/7906/728800.jpg


 
http://www.imdb.com/title/tt0490204/

A man who lost his family in the September 11 attack on New York City runs into his old college roommate. Rekindling the friendship is the one thing that appears able to help the man recover from his grief.                                   Format                                   : AVI
Format/Info                              : Audio Video Interleave
Format profile                           : OpenDML
File size                                : 1.28 GiB
Duration                                 : 1h 59mn
Overall bit rate                         : 1 540 Kbps
Movie name                               : Reign Over Me (2007) DVDRip XviD AC3 peaSoup
Writing application                      : Lavf53.21.0
Original source form/Name                : REIGN_OVER_ME

Video
ID                                       : 0
Format                                   : MPEG-4 Visual
Format profile                           : Advanced Simple@L5
Format settings, BVOP                    : 2
Format settings, QPel                    : No
Format settings, GMC                     : No warppoints
Format settings, Matrix                  : Default (H.263)
Muxing mode                              : Packed bitstream
Codec ID                                 : XVID
Codec ID/Hint                            : XviD
Duration                                 : 1h 59mn
Bit rate                                 : 1 079 Kbps
Width                                    : 720 pixels
Height                                   : 300 pixels
Display aspect ratio                     : 2.40:1
Frame rate                               : 25.000 fps
Color space                              : YUV
Chroma subsampling                       : 4:2:0
Bit depth                                : 8 bits
Scan type                                : Progressive
Compression mode                         : Lossy
Bits/(Pixel*Frame)                       : 0.200
Stream size                              : 922 MiB (70%)
Writing library                          : XviD 1.2.1 (UTC 2008-12-04)

Audio
ID                                       : 1
Format                                   : AC-3
Format/Info                              : Audio Coding 3
Mode extension                           : CM (complete main)
Format settings, Endianness              : Big
Codec ID                                 : 2000
Duration                                 : 1h 59mn
Bit rate mode                            : Constant
Bit rate                                 : 448 Kbps
Channel(s)                               : 6 channels
Channel positions                        : Front: L C R, Side: L R, LFE
Sampling rate                            : 48.0 KHz
Bit depth                                : 16 bits
Compression mode                         : Lossy
Stream size                              : 383 MiB (29%)
Alignment                                : Aligned on interleaves
Interleave, duration                     : 32 ms (0.80 video frame)



